<?xml version="1.0" encoding="UTF-8"?>
<!DOCTYPE svg PUBLIC "-//W3C//DTD SVG 1.1//EN" "http://www.w3.org/Graphics/SVG/1.1/DTD/svg11.dtd">
<svg version="1.1" xmlns="http://www.w3.org/2000/svg" xmlns:xlink="http://www.w3.org/1999/xlink" x="0" y="0" width="200" height="200" viewBox="0, 0, 200, 200">
  <g id="Layer_1">
    <g>
      <path d="M94.3,146.23 C92.504,145.571 91.477,145.776 89.606,144.715 C82.787,140.849 95.471,136.639 95.966,136.238 C93.542,135.12 86.651,133.988 87.091,131.21 C87.295,129.92 89.657,128.616 91.077,128.126 C93.281,127.368 95.076,127.391 97.517,127.391 L94.929,125.404 C92.282,123.298 90.358,121.49 88.604,118.184 C83.348,108.268 92.733,96.353 101.558,99.226 C106.058,100.69 109.502,103.974 111.324,107.551 C111.051,104.221 110.355,102.751 110.878,98.819 C112.905,83.536 119.309,79.691 105.901,62.255 C104.262,60.123 98.829,53.898 96.625,52.32 C100.483,59.211 104.591,66.44 104.186,75.624 C103.632,88.201 95.046,79.396 92.076,81.602 C88.361,84.357 91.298,94.145 87.004,97.408 C81.347,101.705 79.19,90.296 65.241,104.506 C62.953,106.838 56.888,113.242 55.361,115.276 C46.099,127.605 54.963,133.385 61.983,142.365 C65.468,146.822 73.583,157.097 69.856,163.521 C66.112,169.97 67.147,183.809 69.121,190.501 C70.872,196.436 73.972,199.2 80.611,199.908 C83.211,200.186 87.799,199.886 89.047,198.258 C90.505,196.356 89.266,191.506 88.354,189.71 C86.556,186.171 81.825,181.593 81.897,175.318 C81.958,169.848 86.276,168.802 89.943,162.736 C91.699,159.83 91.643,157.966 91.897,154.224 C92.193,149.867 93.679,148.388 94.3,146.23" fill="#FFFFFF"/>
      <path d="M74.632,63.855 C76.788,64.878 81.038,65.534 83.635,65.157 C86.527,64.737 87.746,63.984 90.803,67.582 C92.421,69.485 93.846,71.36 95.461,73.36 C97.087,75.369 98.552,77.478 100.245,79.147 C99.911,76.35 96.911,69.531 95.656,67.395 C94.473,65.381 93.401,64.237 92.203,62.63 C90.51,60.356 90.63,59.908 89.506,57.104 C88.191,53.819 83.507,51.696 79.432,50.76 C71.951,49.044 65.649,55.896 58.66,52.433 C56.38,51.304 55.933,49.782 54.038,48.838 C51.37,47.506 42.05,44.655 43.248,50.717 C44.211,55.59 49.164,56.985 46.016,62.413 C44.662,64.748 39.793,70.079 39.704,72.747 C39.625,75.123 41.804,76.659 42.764,77.873 C45.491,81.313 43.52,80.673 43.059,83.656 C42.684,86.085 44.468,87.945 46.178,88.672 C48.235,89.545 51.081,89.642 53.398,89.13 C57.192,88.289 62.345,85.541 61.542,81.076 C60.744,76.643 52.598,70.356 52.727,64.963 C52.773,63.08 53.881,59.833 54.787,58.749 C56.298,56.94 59.091,57.561 61.676,57.85 C65.145,58.237 65.823,58.125 68.712,56.908 C72.687,55.235 77.713,53.799 81.523,56.655 C83.813,58.371 83.144,60.086 80.583,61.453 C79.337,62.117 75.272,63.327 74.632,63.855" fill="#FFFFFF"/>
      <path d="M144.96,164.101 C145.531,154.725 139.403,156.595 139.695,150.02 C139.933,144.672 143.328,139.831 145.687,136.772 C147.505,134.413 150.606,131.37 153.01,129.661 C155.786,127.687 159.239,125.969 160.118,122.109 C160.275,121.421 160.344,120.553 160.266,119.78 C160.096,118.069 159.994,118.812 155.883,120.544 C145.978,124.717 149.179,116.811 131.89,118.541 C127.442,118.987 127.371,117.721 125.254,115.73 C120.026,110.816 114.818,119.499 119.804,122.734 C126.722,127.226 132.119,126.819 136.454,135.169 C137.741,137.65 137.747,150.266 135.477,152.096 C134.446,152.924 130.039,154.243 128.35,154.751 C120.932,156.984 113.593,160.318 106.331,161.808 C103.951,162.298 99.4,162.22 97.814,163.058 C90.332,167.011 97.117,172.194 102.635,168.101 C103.659,167.34 103.985,166.348 104.906,165.487 C109.22,161.447 126.031,158.639 131.48,158.045 C136.973,157.445 141.035,159.393 144.2,163.387 C144.728,164.055 144.16,163.634 144.96,164.101" fill="#FFFFFF"/>
      <path d="M139.306,72.163 C141.094,73.136 145.145,71.837 147.167,71.201 C151.36,69.881 152.149,68.919 154.127,68.191 C153.659,71.761 149.313,75.024 146.652,77.119 C146.466,77.263 146.266,77.401 146.027,77.595 L145.292,78.361 C150.61,77.899 154.765,74.604 156.333,70.815 C157.302,68.468 157.698,65.281 156.413,63.032 C154.365,59.449 144.834,59.058 142.233,61.154 C135.72,66.404 143.888,65.822 145.677,66.888 C146.523,67.393 146.954,69.437 145.942,70.199 C144.38,71.374 138.459,68.547 139.306,72.163" fill="#FFFFFF"/>
      <path d="M111.552,39.828 C110.657,30.442 102.877,18.408 97.431,12.109 C95.049,9.354 87.434,0.626 84.382,0 C84.23,1.174 86.585,4.135 87.29,5.15 L108.059,35.004 C109.041,36.416 110.494,38.707 111.552,39.828" fill="#FFFFFF"/>
      <path d="M129.355,52.245 C125.538,45.235 124.579,44.028 122.183,35.087 C121.181,31.353 120.12,29.409 118.131,26.93 C117.091,25.634 113.361,21.758 111.642,21.2 C111.523,25.125 111.917,28.533 113.076,31.993 C115.218,38.39 120.829,42.453 124.919,47.452 L129.355,52.245" fill="#FFFFFF"/>
    </g>
  </g>
</svg>
